<?xml version="1.0" encoding="utf-8"?>
<!-- Svg Vector Icons : http://www.onlinewebfonts.com/icon -->
<!DOCTYPE svg PUBLIC "-//W3C//DTD SVG 1.1//EN" "http://www.w3.org/Graphics/SVG/1.1/DTD/svg11.dtd">
<svg version="1.1" xmlns="http://www.w3.org/2000/svg" xmlns:xlink="http://www.w3.org/1999/xlink" x="0px" y="0px" viewBox="0 0 1000 1000" enable-background="new 0 0 1000 1000" xml:space="preserve">
<metadata> Svg Vector Icons : http://www.onlinewebfonts.com/icon </metadata>
<g><path d="M498.7,888.5c-350.4-19.5-373.4-311-373.4-389.7c12.9-404.7,390.3-385.2,390.3-385.2s239.7-28.5,347.3,225.5C931.5,634.5,756.5,664,756.5,664s-44.7,12-48.5-21.5c0-103.1,47.5-399.4,47.5-399.4H646.8l-8.8,48.6c0,0-30-64.6-134.1-60.3c-253.6,10.7-254.6,299.4-254.6,299.4s-11.7,206.1,194.4,225.5c118.3-3.7,156-93.9,156-93.9l5.3,64.7c0,0,5.9,47.6,89.4,47.6c83.7,0,127-27.4,127-27.4s149-57.1,149-317.5C970.4,252.9,846,9.9,523.3,10C77.5,10,20.3,418.2,30.7,520.5c22,478.2,492.6,469.1,492.6,469.1s197,15.5,401.7-151.6c-16.9-27.2-55.7-67.4-55.7-67.4S728.5,895.1,498.7,888.5z M462.4,661.7c-27.7,4-99.8-5.5-99.8-120.5c7.8-151.6,92-212.5,171-207.3c43.3,2.9,67.5,22.1,80.4,59.5C632.6,496.3,577.7,666.9,462.4,661.7z"/></g>
</svg>